<svg width="181" height="58" viewBox="0 0 181 58" fill="none" xmlns="http://www.w3.org/2000/svg">
<path d="M38.5147 0H0V26.9724H38.5147V0Z" fill="#F91155"/>
<path d="M69.8197 31.0276H31.2102V57.9999H69.8197V31.0276Z" fill="#06CA99"/>
<path d="M27.131 31.0276H0V57.9999H27.131V31.0276Z" fill="#005BFF"/>
<path d="M63.4639 14.4293C63.0844 17.6358 60.4282 20.1822 57.2028 20.6537C52.4597 21.2196 48.4754 17.2586 49.0446 12.6375C49.424 9.43096 52.0802 6.88462 55.3056 6.41307C60.0488 5.75291 64.033 9.71388 63.4639 14.4293ZM57.6772 0.0943716C49.1394 -0.754409 41.9298 6.31876 42.7836 14.9009C43.4476 21.2196 48.5702 26.3123 54.9261 26.9724C63.4639 27.8212 70.6735 20.748 69.8197 12.1659C69.1557 5.75291 64.033 0.660225 57.6772 0.0943716Z" fill="#005BFF"/>
<path d="M86.2009 10.1855C85.1574 10.7513 84.3036 11.6001 83.7345 12.7318C83.1653 13.7692 82.8807 14.9952 82.8807 16.3156C82.8807 17.6359 83.1653 18.8619 83.7345 19.8993C84.3036 20.9367 85.1574 21.7855 86.2009 22.4456C87.2444 23.0115 88.4776 23.3887 89.8057 23.3887C91.1338 23.3887 92.2722 23.1058 93.4106 22.4456C94.4541 21.8798 95.3078 21.031 95.877 19.9936C96.4462 18.9562 96.7308 17.7302 96.7308 16.4099C96.7308 15.0895 96.4462 13.8635 95.877 12.8261C95.3078 11.7887 94.4541 10.9399 93.4106 10.3741C92.3671 9.80823 91.1338 9.431 89.8057 9.431C88.3828 9.24238 87.2444 9.52531 86.2009 10.1855ZM94.3592 8.48791C95.6873 9.24238 96.8257 10.2798 97.5846 11.6944C98.3435 13.0147 98.7229 14.618 98.7229 16.3156C98.7229 18.0131 98.3435 19.6164 97.5846 20.9367C96.8257 22.257 95.6873 23.3887 94.3592 24.1432C93.0311 24.8977 91.4184 25.2749 89.8057 25.2749C88.0982 25.2749 86.5804 24.8977 85.2523 24.1432C83.9242 23.3887 82.7858 22.3513 82.0269 20.9367C81.268 19.6164 80.8885 18.0131 80.8885 16.3156C80.8885 14.618 81.268 13.0147 82.0269 11.6944C82.7858 10.3741 83.9242 9.24238 85.2523 8.48791C86.5804 7.73344 88.1931 7.3562 89.8057 7.3562C91.4184 7.3562 92.9362 7.73344 94.3592 8.48791Z" fill="#001A34"/>
<path d="M109.158 23.1058V24.8034H99.6716V23.2001L106.502 15.1839H100.051V13.4863H108.684V15.0896L101.853 23.1058H109.158Z" fill="#001A34"/>
<path d="M113.522 15.3725C112.858 15.7498 112.383 16.2213 112.004 16.8815C111.624 17.5416 111.435 18.2961 111.435 19.1449C111.435 19.9937 111.624 20.7481 112.004 21.4083C112.383 22.0685 112.858 22.54 113.522 22.9172C114.186 23.2945 114.945 23.4831 115.704 23.4831C116.557 23.4831 117.221 23.2945 117.885 22.9172C118.549 22.54 119.024 22.0685 119.403 21.4083C119.783 20.7481 119.972 19.9937 119.972 19.1449C119.972 18.2961 119.783 17.5416 119.403 16.8815C119.024 16.2213 118.549 15.7498 117.885 15.3725C117.221 14.9953 116.462 14.8067 115.704 14.8067C114.85 14.901 114.186 15.0896 113.522 15.3725ZM118.834 13.9579C119.783 14.4294 120.542 15.1839 121.016 16.127C121.585 17.0701 121.775 18.1075 121.775 19.2392C121.775 20.3709 121.49 21.4083 121.016 22.3514C120.447 23.2945 119.783 23.9546 118.834 24.5205C117.885 24.992 116.842 25.275 115.704 25.275C114.565 25.275 113.522 24.992 112.573 24.5205C111.624 24.0489 110.865 23.2945 110.391 22.3514C109.822 21.4083 109.632 20.3709 109.632 19.2392C109.632 18.1075 109.917 17.0701 110.391 16.127C110.96 15.1839 111.624 14.5237 112.573 13.9579C113.522 13.4863 114.565 13.2034 115.704 13.2034C116.937 13.1091 117.98 13.392 118.834 13.9579Z" fill="#001A34"/>
<path d="M132.969 14.3351C133.728 15.0896 134.107 16.3156 134.107 17.9189V24.8034H132.305V18.2018C132.305 17.0701 132.02 16.3156 131.451 15.7498C130.882 15.1839 130.123 14.901 129.174 14.901C128.131 14.901 127.182 15.2782 126.518 16.0327C125.854 16.7872 125.474 18.0132 125.474 19.6164V24.8034H123.672V13.4864H125.474V15.6555H125.569C125.949 14.8067 126.518 14.2408 127.182 13.7693C127.846 13.2977 128.7 13.1091 129.648 13.1091C131.166 13.1091 132.21 13.5807 132.969 14.3351Z" fill="#001A34"/>
<path d="M95.1181 50.2667H93.0311L83.6396 36.4033H83.5447V50.2667H81.6475V33.1968H83.7345L93.126 47.0602H93.2208V33.1968H95.1181V50.2667Z" fill="#001A34"/>
<path d="M100.81 41.1188C100.146 41.6847 99.6716 42.5335 99.5767 43.5709H106.976C106.881 42.5335 106.502 41.6847 105.933 41.1188C105.269 40.553 104.415 40.2701 103.371 40.2701C102.328 40.2701 101.474 40.553 100.81 41.1188ZM107.545 40.2701C108.494 41.4018 108.968 42.8164 108.968 44.514V44.7969H99.5767C99.5767 46.0229 99.9562 47.0603 100.715 47.7205C101.474 48.4749 102.423 48.8522 103.656 48.8522C104.604 48.8522 105.363 48.6636 105.933 48.2863C106.502 47.9091 107.071 47.3432 107.545 46.7774L108.779 47.9091C108.209 48.6636 107.545 49.3237 106.786 49.7953C106.027 50.3611 104.984 50.5497 103.656 50.5497C102.517 50.5497 101.474 50.2668 100.525 49.7953C99.6716 49.3237 98.9127 48.5693 98.4384 47.7205C97.964 46.7774 97.6794 45.74 97.6794 44.6083C97.6794 43.3823 97.964 42.3449 98.4384 41.4961C98.9127 40.553 99.5767 39.8928 100.43 39.327C101.284 38.8554 102.328 38.5725 103.466 38.5725C105.269 38.6668 106.597 39.1384 107.545 40.2701Z" fill="#001A34"/>
<path d="M126.613 38.9497L122.723 50.2668H121.111L117.885 41.3074L114.755 50.2668H113.142L109.253 38.9497H111.245L113.996 48.0034L117.032 38.9497H118.834L121.87 48.0034L124.621 38.9497H126.613Z" fill="#001A34"/>
<path d="M142.265 33.857L141.412 35.6489C140.273 34.9888 139.04 34.7058 137.902 34.7058C137.048 34.7058 136.384 34.8944 136.004 35.2717C135.53 35.6489 135.34 36.1205 135.34 36.6863C135.34 37.2522 135.53 37.6294 135.815 38.0066C136.099 38.3839 136.574 38.8554 137.238 39.2327L140.084 41.3075C141.032 41.9676 141.791 42.7221 142.265 43.4766C142.74 44.231 143.024 45.0798 143.024 46.0229C143.024 47.5318 142.55 48.6636 141.601 49.418C140.653 50.1725 139.325 50.644 137.712 50.644C136.763 50.644 135.815 50.4554 134.866 50.1725C133.917 49.8896 133.064 49.5123 132.305 49.0408L133.253 47.2489C134.771 48.192 136.289 48.6635 137.807 48.6635C138.85 48.6635 139.704 48.3806 140.273 47.9091C140.842 47.4375 141.127 46.7774 141.127 46.0229C141.127 45.457 140.937 44.8912 140.653 44.4196C140.273 43.9481 139.704 43.3823 138.945 42.8164L136.099 40.7416C135.245 40.0814 134.676 39.5156 134.202 38.8554C133.728 38.1953 133.538 37.4408 133.538 36.592C133.538 35.366 133.917 34.4229 134.771 33.7627C135.625 33.0083 136.763 32.7253 138.186 32.7253C139.23 32.8197 140.748 33.1969 142.265 33.857Z" fill="#001A34"/>
<path d="M152.226 50.2667L147.009 44.5138V50.2667H145.206V33.1968H147.009V43.948L151.752 38.9496H154.123L148.906 44.1366L154.693 50.2667H152.226Z" fill="#001A34"/>
<path d="M156.495 38.9497H158.297V50.2668H156.495V38.9497ZM158.392 33.5741C158.677 33.857 158.867 34.2342 158.867 34.6115C158.867 34.9887 158.677 35.366 158.392 35.6489C158.108 35.9318 157.728 36.1204 157.349 36.1204C156.969 36.1204 156.59 35.9318 156.305 35.6489C156.021 35.366 155.831 34.9887 155.831 34.6115C155.831 34.2342 156.021 33.857 156.305 33.5741C156.59 33.2912 156.969 33.1025 157.349 33.1025C157.728 33.1025 158.108 33.2912 158.392 33.5741Z" fill="#001A34"/>
<path d="M163.23 33.1968H161.428V50.2667H163.23V33.1968Z" fill="#001A34"/>
<path d="M168.353 33.1968H166.55V50.2667H168.353V33.1968Z" fill="#001A34"/>
<path d="M172.622 50.2668C171.768 50.0782 171.104 49.701 170.44 49.3237L171.294 47.7205C172.527 48.5693 173.855 48.9465 175.183 48.9465C175.942 48.9465 176.511 48.8522 176.891 48.5693C177.27 48.2863 177.46 47.9091 177.46 47.4375C177.46 47.0603 177.365 46.7774 177.08 46.4945C176.796 46.2115 176.416 46.0229 175.942 45.74L173.855 44.7026C172.242 43.9481 171.389 42.9107 171.389 41.5904C171.389 40.6473 171.768 39.8928 172.432 39.327C173.096 38.7611 174.045 38.5725 175.278 38.5725C176.511 38.5725 177.839 38.8554 179.073 39.4213L178.314 41.0245C177.175 40.4587 176.132 40.2701 175.183 40.2701C174.519 40.2701 174.045 40.3644 173.76 40.553C173.381 40.7416 173.286 41.1188 173.286 41.4961C173.286 41.8733 173.381 42.1562 173.665 42.4392C173.95 42.7221 174.329 43.005 174.898 43.1936L176.985 44.1367C177.744 44.514 178.408 44.9855 178.788 45.4571C179.167 45.9286 179.452 46.5888 179.452 47.3432C179.452 48.3806 179.072 49.2294 178.314 49.7953C177.555 50.3611 176.511 50.6441 175.183 50.6441C174.234 50.6441 173.381 50.5497 172.622 50.2668Z" fill="#001A34"/>
</svg>
